<svg id="visual" viewBox="0 0 900 600" width="900" height="600" xmlns="http://www.w3.org/2000/svg" xmlns:xlink="http://www.w3.org/1999/xlink" version="1.1"><rect x="0" y="0" width="900" height="600" fill="#5a4c4c"></rect><defs><linearGradient id="grad1_0" x1="33.3%" y1="0%" x2="100%" y2="100%"><stop offset="20%" stop-color="#5a4c4c" stop-opacity="1"></stop><stop offset="80%" stop-color="#5a4c4c" stop-opacity="1"></stop></linearGradient></defs><defs><linearGradient id="grad2_0" x1="0%" y1="0%" x2="66.7%" y2="100%"><stop offset="20%" stop-color="#5a4c4c" stop-opacity="1"></stop><stop offset="80%" stop-color="#5a4c4c" stop-opacity="1"></stop></linearGradient></defs><g transform="translate(900, 0)"><path d="M0 297.5C-45.8 300.3 -91.6 303.2 -113.8 274.8C-136.1 246.4 -134.8 186.7 -156.3 156.3C-177.8 125.8 -222.1 124.5 -249.4 103.3C-276.8 82.1 -287.1 41.1 -297.5 0L0 0Z" fill="#514713"></path></g><g transform="translate(0, 600)"><path d="M0 -297.5C36.5 -275.3 72.9 -253 93.8 -226.4C114.6 -199.7 119.9 -168.5 152.7 -152.7C185.6 -137 246.1 -136.7 274.8 -113.8C303.5 -91 300.5 -45.5 297.5 0L0 0Z" fill="#514713"></path></g></svg>