<svg id="visual" viewBox="0 0 900 600" width="900" height="600" xmlns="http://www.w3.org/2000/svg" xmlns:xlink="http://www.w3.org/1999/xlink" version="1.1"><rect x="0" y="0" width="900" height="600" fill="white"></rect>
            <path d="M0 355L21.5 368.8C43 382.7 86 410.3 128.8 417.8C171.7 425.3 214.3 412.7 257.2 410C300 407.3 343 414.7 385.8 421.5C428.7 428.3 471.3 434.7 514.2 436.8C557 439 600 437 642.8 424.8C685.7 412.7 728.3 390.3 771.2 382.8C814 375.3 857 382.7 878.5 386.3L900 390L900 601L878.5 601C857 601 814 601 771.2 601C728.3 601 685.7 601 642.8 601C600 601 557 601 514.2 601C471.3 601 428.7 601 385.8 601C343 601 300 601 257.2 601C214.3 601 171.7 601 128.8 601C86 601 43 601 21.5 601L0 601Z" fill="#2f2926"></path>
            <path d="M0 426L21.5 431.8C43 437.7 86 449.3 128.8 457.3C171.7 465.3 214.3 469.7 257.2 471.5C300 473.3 343 472.7 385.8 466.8C428.7 461 471.3 450 514.2 441.3C557 432.7 600 426.3 642.8 426.2C685.7 426 728.3 432 771.2 431.5C814 431 857 424 878.5 420.5L900 417L900 601L878.5 601C857 601 814 601 771.2 601C728.3 601 685.7 601 642.8 601C600 601 557 601 514.2 601C471.3 601 428.7 601 385.8 601C343 601 300 601 257.2 601C214.3 601 171.7 601 128.8 601C86 601 43 601 21.5 601L0 601Z" fill="#39312f"></path>
            <path d="M0 479L21.5 472.5C43 466 86 453 128.8 451.3C171.7 449.7 214.3 459.3 257.2 468.2C300 477 343 485 385.8 484.8C428.7 484.7 471.3 476.3 514.2 467.3C557 458.3 600 448.7 642.8 454.3C685.7 460 728.3 481 771.2 490.8C814 500.7 857 499.3 878.5 498.7L900 498L900 601L878.5 601C857 601 814 601 771.2 601C728.3 601 685.7 601 642.8 601C600 601 557 601 514.2 601C471.3 601 428.7 601 385.8 601C343 601 300 601 257.2 601C214.3 601 171.7 601 128.8 601C86 601 43 601 21.5 601L0 601Z" fill="#443a38"></path>
            <path d="M0 520L21.5 522.7C43 525.3 86 530.7 128.8 527.8C171.7 525 214.3 514 257.2 511C300 508 343 513 385.8 516C428.7 519 471.3 520 514.2 519.7C557 519.3 600 517.7 642.8 512.3C685.7 507 728.3 498 771.2 501.5C814 505 857 521 878.5 529L900 537L900 601L878.5 601C857 601 814 601 771.2 601C728.3 601 685.7 601 642.8 601C600 601 557 601 514.2 601C471.3 601 428.7 601 385.8 601C343 601 300 601 257.2 601C214.3 601 171.7 601 128.8 601C86 601 43 601 21.5 601L0 601Z" fill="#4f4342"></path>
            <path d="M0 543L21.5 540.8C43 538.7 86 534.3 128.8 534.8C171.7 535.3 214.3 540.7 257.2 540.5C300 540.3 343 534.7 385.8 531.5C428.7 528.3 471.3 527.7 514.2 527C557 526.3 600 525.7 642.8 532C685.7 538.3 728.3 551.7 771.2 552.5C814 553.3 857 541.7 878.5 535.8L900 530L900 601L878.5 601C857 601 814 601 771.2 601C728.3 601 685.7 601 642.8 601C600 601 557 601 514.2 601C471.3 601 428.7 601 385.8 601C343 601 300 601 257.2 601C214.3 601 171.7 601 128.8 601C86 601 43 601 21.5 601L0 601Z" fill="#5a4c4c"></path>
        </svg>