<svg id="visual" viewBox="0 0 900 600" width="900" height="600" xmlns="http://www.w3.org/2000/svg" xmlns:xlink="http://www.w3.org/1999/xlink" version="1.1"><rect x="0" y="0" width="900" height="600" fill="#FFFFFF"></rect><path d="M0 244L15 250.3C30 256.7 60 269.3 90 260.8C120 252.3 150 222.7 180 216.5C210 210.3 240 227.7 270 246.5C300 265.3 330 285.7 360 296.2C390 306.7 420 307.3 450 298.2C480 289 510 270 540 248C570 226 600 201 630 193.8C660 186.7 690 197.3 720 219.3C750 241.3 780 274.7 810 280.5C840 286.3 870 264.7 885 253.8L900 243L900 0L885 0C870 0 840 0 810 0C780 0 750 0 720 0C690 0 660 0 630 0C600 0 570 0 540 0C510 0 480 0 450 0C420 0 390 0 360 0C330 0 300 0 270 0C240 0 210 0 180 0C150 0 120 0 90 0C60 0 30 0 15 0L0 0Z" fill="#5a4c4c"></path><path d="M0 190L15 198.7C30 207.3 60 224.7 90 220.3C120 216 150 190 180 179C210 168 240 172 270 177.5C300 183 330 190 360 186C390 182 420 167 450 158.7C480 150.3 510 148.7 540 149.5C570 150.3 600 153.7 630 155.8C660 158 690 159 720 171.7C750 184.3 780 208.7 810 224C840 239.3 870 245.7 885 248.8L900 252L900 0L885 0C870 0 840 0 810 0C780 0 750 0 720 0C690 0 660 0 630 0C600 0 570 0 540 0C510 0 480 0 450 0C420 0 390 0 360 0C330 0 300 0 270 0C240 0 210 0 180 0C150 0 120 0 90 0C60 0 30 0 15 0L0 0Z" fill="#5b4d4d"></path><path d="M0 197L15 193.2C30 189.3 60 181.7 90 166.2C120 150.7 150 127.3 180 129.8C210 132.3 240 160.7 270 172.7C300 184.7 330 180.3 360 175.3C390 170.3 420 164.7 450 156.8C480 149 510 139 540 145.5C570 152 600 175 630 179.8C660 184.7 690 171.3 720 169.8C750 168.3 780 178.7 810 184.3C840 190 870 191 885 191.5L900 192L900 0L885 0C870 0 840 0 810 0C780 0 750 0 720 0C690 0 660 0 630 0C600 0 570 0 540 0C510 0 480 0 450 0C420 0 390 0 360 0C330 0 300 0 270 0C240 0 210 0 180 0C150 0 120 0 90 0C60 0 30 0 15 0L0 0Z" fill="#5c4e4e"></path><path d="M0 150L15 142.3C30 134.7 60 119.3 90 110.7C120 102 150 100 180 106C210 112 240 126 270 129.5C300 133 330 126 360 116C390 106 420 93 450 85.2C480 77.3 510 74.7 540 85C570 95.3 600 118.7 630 124.2C660 129.7 690 117.3 720 106.7C750 96 780 87 810 89C840 91 870 104 885 110.5L900 117L900 0L885 0C870 0 840 0 810 0C780 0 750 0 720 0C690 0 660 0 630 0C600 0 570 0 540 0C510 0 480 0 450 0C420 0 390 0 360 0C330 0 300 0 270 0C240 0 210 0 180 0C150 0 120 0 90 0C60 0 30 0 15 0L0 0Z" fill="#5d4f4f"></path><path d="M0 93L15 89.3C30 85.7 60 78.3 90 71.7C120 65 150 59 180 62.7C210 66.3 240 79.7 270 83.2C300 86.7 330 80.3 360 72.2C390 64 420 54 450 55.5C480 57 510 70 540 74.3C570 78.7 600 74.3 630 71.3C660 68.3 690 66.7 720 62.2C750 57.7 780 50.3 810 49.7C840 49 870 55 885 58L900 61L900 0L885 0C870 0 840 0 810 0C780 0 750 0 720 0C690 0 660 0 630 0C600 0 570 0 540 0C510 0 480 0 450 0C420 0 390 0 360 0C330 0 300 0 270 0C240 0 210 0 180 0C150 0 120 0 90 0C60 0 30 0 15 0L0 0Z" fill="#5f5050"></path></svg>